<svg width="1092" height="1287" viewBox="0 0 1092 1287" fill="none" xmlns="http://www.w3.org/2000/svg">
<rect width="1092" height="1287" rx="47" fill="url(#paint0_linear_2805_5)"/>
<path d="M1073 827C1073 827.394 1072.98 827.785 1072.95 828.149C1072.92 828.514 1072.87 828.845 1072.82 829.124C1072.76 829.403 1072.69 829.624 1072.61 829.774C1072.53 829.924 1072.45 830.001 1072.37 830H725.632C725.464 830 725.303 829.684 725.185 829.121C725.067 828.559 725 827.796 725 827C725 826.204 725.067 825.441 725.185 824.879C725.303 824.316 725.464 824 725.632 824H1072.37C1072.45 823.999 1072.53 824.076 1072.61 824.226C1072.69 824.376 1072.76 824.597 1072.82 824.876C1072.87 825.155 1072.92 825.486 1072.95 825.851C1072.98 826.215 1073 826.606 1073 827V827Z" fill="#CCCCCC"/>
<path d="M954.549 565.472C951.421 558.744 956.386 551.232 958.158 543.989C961.465 530.473 952.148 515.839 939.519 511.156C926.889 506.472 912.376 510.387 901.528 518.582C890.893 526.616 883.416 530.401 876.091 541.752C873.634 545.558 871.033 557.377 870.568 561.936C870.103 566.495 872.462 571.719 876.763 572.719C875.026 576.405 878.036 580.654 881.916 579.905C890.149 578.315 905.269 582.685 905.269 582.685C919.367 583.492 933.464 584.299 947.562 585.106C951.174 585.313 954.922 585.501 958.168 583.505C959.066 582.98 959.839 582.266 960.435 581.413C961.031 580.561 961.435 579.589 961.62 578.566C962.445 573.227 956.706 570.112 954.549 565.472Z" fill="#2F2E41"/>
<path d="M945.9 807.307C920.853 830.907 894.253 829.484 866.259 805.19C850.814 804.779 838.536 793.611 838.89 780.295C839.244 766.979 852.098 756.479 867.544 756.89L947.185 759.008C962.63 759.418 974.908 770.586 974.554 783.902C974.2 797.219 961.345 807.718 945.9 807.307Z" fill="#2F2E41"/>
<path d="M965.195 624.344L962.11 644.873L957.218 677.399L956.389 689.45L950.301 777.775C950.301 777.775 903.256 773.917 890.754 777.775C878.252 781.648 847.866 765.711 847.866 765.711C858.778 754.977 855.829 715.536 855.829 715.536L855.707 617.836L883.307 608.556L892.398 590.663H925.012L933.165 609.684L947.964 616.45L954.704 619.548L965.195 624.344Z" fill="#3F3D56"/>
<path d="M835.255 946.982L819.462 949.561L801.993 889.885L825.302 886.078L835.255 946.982Z" fill="#FFB6B6"/>
<path d="M828.98 822.546C858.425 829.784 880.168 821.633 898.076 822.69C908.255 805.516 940.75 783.702 923.02 774.52C913.147 769.406 812.774 757.618 799.597 771.223C765.715 806.207 807.783 916.687 807.783 916.687L831.181 916.385L838.656 905.717L832.635 894.091L838.331 884.585L831.812 874.793L828.98 822.546Z" fill="#2F2E41"/>
<path d="M980.796 946.982L996.588 949.561L1014.06 889.885L990.749 886.078L980.796 946.982Z" fill="#FFB6B6"/>
<path d="M987.071 792.656C970.776 816.549 944.782 820.456 917.975 822.69C907.795 805.516 875.301 783.702 893.03 774.519C902.904 769.406 1003.28 727.728 1016.45 741.333C1050.34 776.316 1008.27 916.687 1008.27 916.687L984.87 916.385L977.394 905.717L983.416 894.091L977.72 884.585L984.239 874.793L987.071 792.656Z" fill="#2F2E41"/>
<path d="M982.179 924.81L1005.6 929.605L1002.95 939.479L1020.82 960.478C1021.7 961.515 1022.23 962.806 1022.32 964.165C1022.42 965.523 1022.08 966.876 1021.35 968.027C1020.62 969.177 1019.54 970.065 1018.28 970.561C1017.01 971.057 1015.61 971.134 1014.3 970.782L986.857 963.436L984.742 952.403L980.28 961.675L969.933 958.905L982.179 924.81Z" fill="#2F2E41"/>
<path d="M846.117 958.905L835.77 961.675L831.308 952.403L829.194 963.436L801.751 970.782C800.436 971.134 799.043 971.057 797.774 970.561C796.506 970.065 795.429 969.177 794.702 968.027C793.974 966.876 793.633 965.523 793.729 964.165C793.825 962.806 794.353 961.515 795.235 960.478L813.097 939.479L810.453 929.605L833.871 924.81L846.117 958.905Z" fill="#2F2E41"/>
<path d="M910.052 581.486C925.281 581.486 937.627 569.143 937.627 553.917C937.627 538.69 925.281 526.347 910.052 526.347C894.822 526.347 882.477 538.69 882.477 553.917C882.477 569.143 894.822 581.486 910.052 581.486Z" fill="#FFB6B6"/>
<path d="M894.297 545.269C887.012 545.281 879.902 543.038 873.942 538.848L873.743 538.709C873.743 531.597 876.569 524.776 881.599 519.747C886.629 514.718 893.452 511.892 900.565 511.892H911.514C915.013 511.896 918.477 512.59 921.708 513.934C924.938 515.279 927.872 517.247 930.341 519.726C932.809 522.205 934.765 525.147 936.095 528.382C937.426 531.618 938.104 535.085 938.093 538.583C938.07 540.18 937.425 541.705 936.294 542.833C935.164 543.961 933.638 544.604 932.04 544.624L894.926 545.263C894.716 545.267 894.506 545.269 894.297 545.269Z" fill="#2F2E41"/>
<path d="M958.226 852.758H875.195C872.97 852.756 870.837 851.871 869.263 850.298C867.69 848.724 866.805 846.591 866.802 844.367V768.413C866.805 766.188 867.69 764.055 869.263 762.482C870.837 760.909 872.97 760.024 875.195 760.022H958.226C960.451 760.024 962.584 760.909 964.158 762.482C965.731 764.055 966.616 766.188 966.619 768.413V844.367C966.616 846.591 965.731 848.724 964.158 850.298C962.584 851.871 960.451 852.756 958.226 852.758V852.758Z" fill="#E6E6E6"/>
<path d="M952.39 845.764H881.032C879.056 845.762 877.162 844.976 875.765 843.58C874.368 842.183 873.582 840.289 873.58 838.314V774.466C873.582 772.491 874.368 770.597 875.765 769.2C877.162 767.803 879.056 767.018 881.032 767.015H952.39C954.365 767.018 956.259 767.803 957.656 769.2C959.054 770.597 959.839 772.491 959.842 774.466V838.314C959.839 840.289 959.054 842.183 957.656 843.58C956.259 844.976 954.365 845.762 952.39 845.764V845.764Z" fill="white"/>
<path d="M945.271 785.604H888.15C887.656 785.604 887.182 785.408 886.833 785.058C886.483 784.709 886.287 784.235 886.287 783.741C886.287 783.247 886.483 782.774 886.833 782.424C887.182 782.075 887.656 781.879 888.15 781.879H945.271C945.765 781.879 946.239 782.075 946.588 782.424C946.937 782.774 947.134 783.247 947.134 783.741C947.134 784.235 946.937 784.709 946.588 785.058C946.239 785.408 945.765 785.604 945.271 785.604V785.604Z" fill="#6C63FF"/>
<path d="M945.271 792.964H888.15C887.656 792.964 887.182 792.767 886.833 792.418C886.483 792.069 886.287 791.595 886.287 791.101C886.287 790.607 886.483 790.133 886.833 789.784C887.182 789.435 887.656 789.238 888.15 789.238H945.271C945.765 789.238 946.239 789.435 946.588 789.784C946.938 790.133 947.134 790.607 947.134 791.101C947.134 791.595 946.938 792.069 946.588 792.418C946.239 792.767 945.765 792.964 945.271 792.964Z" fill="#6C63FF"/>
<path d="M912.911 800.323H888.15C887.656 800.323 887.182 800.127 886.833 799.778C886.483 799.429 886.287 798.955 886.287 798.461C886.287 797.967 886.483 797.493 886.833 797.144C887.182 796.794 887.656 796.598 888.15 796.598H912.911C913.405 796.598 913.879 796.794 914.228 797.144C914.577 797.493 914.774 797.967 914.774 798.461C914.774 798.955 914.577 799.429 914.228 799.778C913.879 800.127 913.405 800.323 912.911 800.323Z" fill="#6C63FF"/>
<path d="M945.271 815.738H888.15C887.656 815.738 887.182 815.541 886.833 815.192C886.483 814.843 886.287 814.369 886.287 813.875C886.287 813.381 886.483 812.907 886.833 812.558C887.182 812.209 887.656 812.012 888.15 812.012H945.271C945.765 812.012 946.239 812.209 946.588 812.558C946.937 812.907 947.134 813.381 947.134 813.875C947.134 814.369 946.937 814.843 946.588 815.192C946.239 815.541 945.765 815.738 945.271 815.738V815.738Z" fill="#E4E4E4"/>
<path d="M945.271 823.097H888.15C887.656 823.097 887.182 822.901 886.833 822.552C886.483 822.202 886.287 821.729 886.287 821.235C886.287 820.741 886.483 820.267 886.833 819.918C887.182 819.568 887.656 819.372 888.15 819.372H945.271C945.765 819.372 946.239 819.568 946.588 819.918C946.938 820.267 947.134 820.741 947.134 821.235C947.134 821.729 946.938 822.202 946.588 822.552C946.239 822.901 945.765 823.097 945.271 823.097Z" fill="#E4E4E4"/>
<path d="M912.911 830.457H888.15C887.656 830.457 887.182 830.261 886.833 829.912C886.483 829.562 886.287 829.089 886.287 828.595C886.287 828.101 886.483 827.627 886.833 827.277C887.182 826.928 887.656 826.732 888.15 826.732H912.911C913.405 826.732 913.879 826.928 914.228 827.277C914.577 827.627 914.774 828.101 914.774 828.595C914.774 829.089 914.577 829.562 914.228 829.912C913.879 830.261 913.405 830.457 912.911 830.457V830.457Z" fill="#E4E4E4"/>
<path d="M971.215 680.334L946.237 680.538L944.402 724.987L924.107 749.828C921.638 750.244 919.332 751.333 917.444 752.977C915.556 754.62 914.159 756.754 913.407 759.141C912.655 761.529 912.578 764.078 913.184 766.507C913.791 768.935 915.057 771.149 916.842 772.903C918.628 774.658 920.864 775.885 923.303 776.448C925.742 777.012 928.29 776.891 930.665 776.098C933.039 775.305 935.148 773.871 936.759 771.955C938.37 770.038 939.42 767.714 939.792 765.239L967.75 726.491L971.215 680.334Z" fill="#FFB6B6"/>
<path d="M843.312 682.351L817.707 670.384L789.748 704.992L758.646 712.856C756.416 711.719 753.914 711.221 751.418 711.417C748.922 711.612 746.529 712.493 744.503 713.963C742.476 715.433 740.896 717.435 739.935 719.746C738.975 722.058 738.673 724.59 739.062 727.063C739.451 729.536 740.515 731.853 742.139 733.758C743.762 735.664 745.881 737.084 748.26 737.861C750.64 738.639 753.189 738.743 755.624 738.164C758.06 737.584 760.287 736.342 762.062 734.576L807.605 720.106L843.312 682.351Z" fill="#FFB6B6"/>
<path d="M923.849 579.359L933.396 567.451C934.427 566.407 935.098 565.062 935.312 563.611C935.362 562.156 933.99 560.597 932.606 561.053C931.323 561.477 923.923 542.942 922.571 542.946C921.17 542.95 920.712 541.082 920.695 539.681C920.627 534.372 924.944 540.073 926.37 534.959C927.797 529.845 933.36 534.242 938.154 531.958C942.948 529.674 949.461 530.711 952.425 535.117C954.622 538.383 954.541 542.628 954.249 546.554C953.572 555.664 952.201 564.709 950.148 573.61C949.644 575.797 948.893 578.24 946.877 579.228C945.768 579.667 944.573 579.846 943.383 579.75L928.684 579.677" fill="#2F2E41"/>
<path d="M946.754 528.166C954.259 528.166 960.343 522.083 960.343 514.579C960.343 507.076 954.259 500.993 946.754 500.993C939.249 500.993 933.165 507.076 933.165 514.579C933.165 522.083 939.249 528.166 946.754 528.166Z" fill="#2F2E41"/>
<path d="M977.316 680.592C975.849 683.146 972.723 684.165 969.869 684.953C966.01 686.026 964.882 687.113 961.023 688.187C959.487 688.621 957.938 689.056 956.389 689.45C953.846 690.135 951.264 690.666 948.657 691.04C946.469 691.352 943.887 691.352 942.46 689.654C941.514 688.195 941.132 686.442 941.387 684.722C941.944 663.853 942.505 642.985 943.072 622.116L944.254 622.523C944.786 622.172 945.34 621.855 945.912 621.572C948.632 620.187 951.651 619.492 954.704 619.548C956.451 619.562 958.186 619.832 959.854 620.35C962.444 621.172 964.824 622.548 966.828 624.383C968.833 626.217 970.413 628.467 971.459 630.974C972.815 634.759 973.46 638.762 973.362 642.781C973.375 643.392 973.375 644.004 973.389 644.615C973.471 649.832 970.821 655.049 970.902 660.266C970.84 661.735 971.043 663.203 971.5 664.601C972.044 665.986 973.104 667.141 973.511 668.581C973.919 670.008 973.253 671.964 971.772 672.073C972.818 671.961 973.875 672.142 974.826 672.593C975.776 673.045 976.583 673.751 977.157 674.633C977.731 675.515 978.049 676.538 978.078 677.59C978.106 678.642 977.842 679.681 977.316 680.592L977.316 680.592Z" fill="#3F3D56"/>
<path d="M855.821 617.954C858.538 618.118 861.186 618.879 863.575 620.183C865.965 621.488 868.036 623.304 869.643 625.501C871.249 627.699 872.351 630.223 872.869 632.896C873.387 635.568 873.308 638.321 872.639 640.959C871.503 645.437 868.752 649.305 866.056 653.057L856.922 665.766C855.996 666.905 855.283 668.203 854.818 669.596C854.434 671.037 854.586 672.599 854.059 673.995C853.533 675.391 851.838 676.561 850.579 675.761C851.486 676.295 852.227 677.069 852.722 677.997C853.216 678.926 853.444 679.973 853.381 681.023C853.317 682.073 852.965 683.085 852.362 683.948C851.759 684.81 850.93 685.489 849.966 685.91C847.255 687.092 844.142 686.037 841.381 684.981L830.164 680.689C826.175 679.266 822.288 677.572 818.53 675.619C816.589 674.554 814.516 673.019 814.378 670.809C814.271 669.089 815.726 667.767 816.455 666.206C825.59 646.652 839.023 631.094 855.707 617.836L855.821 617.954Z" fill="#3F3D56"/>
<path d="M877.386 874.01C888.035 874.01 896.667 865.379 896.667 854.732C896.667 844.085 888.035 835.454 877.386 835.454C866.737 835.454 858.104 844.085 858.104 854.732C858.104 865.379 866.737 874.01 877.386 874.01Z" fill="white"/>
<path d="M877.386 874.245C873.526 874.245 869.752 873.101 866.543 870.957C863.333 868.813 860.832 865.765 859.354 862.199C857.877 858.634 857.491 854.71 858.244 850.925C858.997 847.14 860.856 843.663 863.585 840.934C866.315 838.205 869.792 836.347 873.578 835.594C877.364 834.841 881.288 835.227 884.854 836.704C888.421 838.181 891.469 840.682 893.613 843.891C895.758 847.1 896.903 850.873 896.903 854.732C896.897 859.905 894.839 864.865 891.18 868.523C887.521 872.182 882.56 874.239 877.386 874.245Z" fill="#6C63FF"/>
<path d="M875.942 862.437C875.901 862.437 875.86 862.435 875.819 862.433C875.455 862.416 875.1 862.32 874.778 862.152C874.455 861.985 874.173 861.749 873.949 861.462L870.727 857.32C870.524 857.059 870.374 856.76 870.286 856.441C870.198 856.121 870.174 855.788 870.215 855.459C870.256 855.13 870.361 854.813 870.525 854.525C870.689 854.237 870.908 853.984 871.169 853.781L871.285 853.69C871.547 853.487 871.846 853.337 872.165 853.249C872.485 853.161 872.819 853.137 873.147 853.178C873.476 853.219 873.794 853.324 874.082 853.488C874.37 853.652 874.623 853.871 874.826 854.133C874.989 854.342 875.195 854.513 875.43 854.635C875.665 854.757 875.924 854.827 876.188 854.84C876.453 854.853 876.717 854.808 876.963 854.71C877.209 854.611 877.431 854.461 877.613 854.268L884.155 847.363C884.616 846.878 885.25 846.595 885.919 846.577C886.587 846.559 887.236 846.807 887.722 847.266L887.829 847.368C888.07 847.596 888.263 847.869 888.398 848.171C888.533 848.474 888.608 848.8 888.617 849.131C888.625 849.462 888.569 849.792 888.451 850.101C888.332 850.411 888.154 850.693 887.926 850.934L877.773 861.649C877.537 861.898 877.253 862.096 876.938 862.231C876.624 862.367 876.285 862.437 875.942 862.437V862.437Z" fill="white"/>
<path d="M739.904 748.306L691.89 689.526C690.249 687.513 689.474 684.932 689.735 682.349C689.996 679.765 691.271 677.391 693.281 675.746L706.094 665.284C708.107 663.644 710.689 662.869 713.273 663.13C715.857 663.39 718.231 664.665 719.876 666.674L767.891 725.454C769.532 727.466 770.306 730.048 770.046 732.631C769.785 735.214 768.51 737.589 766.5 739.234L753.687 749.696C751.674 751.336 749.092 752.111 746.508 751.85C743.924 751.59 741.549 750.315 739.904 748.306V748.306Z" fill="#3F3D56"/>
<path d="M765.489 726.582L752.634 710.849L745.934 702.656L717.465 667.807C717.027 667.27 716.488 666.825 715.878 666.497C715.268 666.168 714.599 665.964 713.91 665.894C713.221 665.825 712.525 665.892 711.861 666.092C711.198 666.292 710.581 666.621 710.045 667.06L697.23 677.521C696.694 677.959 696.248 678.498 695.92 679.108C695.592 679.718 695.387 680.386 695.318 681.075C695.249 681.764 695.316 682.46 695.516 683.123C695.716 683.786 696.044 684.403 696.483 684.939L696.51 684.98L720.55 714.408L744.494 743.728C745.382 744.81 746.663 745.495 748.056 745.635C749.449 745.775 750.841 745.358 751.927 744.475L764.728 734.014C765.811 733.127 766.499 731.847 766.642 730.455C766.784 729.062 766.37 727.67 765.489 726.582V726.582Z" fill="#6C63FF"/>
<path d="M727.969 699.355C727.972 702.265 727.304 705.137 726.017 707.748C724.73 710.358 722.859 712.637 720.549 714.408L696.51 684.98C699.265 682.592 702.648 681.046 706.257 680.527C709.865 680.008 713.547 680.538 716.863 682.053C720.179 683.568 722.989 686.005 724.958 689.073C726.927 692.14 727.973 695.709 727.969 699.355V699.355Z" fill="#3F3D56"/>
<path d="M731.519 689.575C732.17 691.914 730.488 694.719 726.784 697.475C726.043 698.027 724.99 698.288 724.373 699.085C723.075 700.887 721.305 702.298 719.257 703.161C717.21 704.025 714.964 704.308 712.767 703.98C712.508 703.814 712.25 703.644 711.995 703.468C712.043 703.456 712.09 703.443 712.137 703.43C716.524 702.264 720.721 700.476 724.602 698.122C725.224 697.728 726.189 697.579 726.367 696.913C727.792 691.569 730.989 691.184 730.845 689.762C730.635 687.685 727.543 686.361 723.318 685.947C722.9 685.906 722.473 685.875 722.036 685.853C721.862 685.608 721.684 685.367 721.498 685.132C722.147 685.152 722.777 685.192 723.386 685.251C727.981 685.7 730.869 687.236 731.519 689.575Z" fill="white"/>
<path d="M711.572 693.062C714.166 693.062 716.268 690.96 716.268 688.367C716.268 685.774 714.166 683.672 711.572 683.672C708.979 683.672 706.876 685.774 706.876 688.367C706.876 690.96 708.979 693.062 711.572 693.062Z" fill="white"/>
<path d="M736.275 719.417C736.956 719.417 737.508 718.865 737.508 718.184C737.508 717.503 736.956 716.95 736.275 716.95C735.593 716.95 735.041 717.503 735.041 718.184C735.041 718.865 735.593 719.417 736.275 719.417Z" fill="white"/>
<path d="M756.658 724.852C757.34 724.852 757.892 724.3 757.892 723.618C757.892 722.937 757.34 722.385 756.658 722.385C755.977 722.385 755.425 722.937 755.425 723.618C755.425 724.3 755.977 724.852 756.658 724.852Z" fill="white"/>
<path d="M711.814 674.582C712.495 674.582 713.048 674.03 713.048 673.349C713.048 672.667 712.495 672.115 711.814 672.115C711.133 672.115 710.581 672.667 710.581 673.349C710.581 674.03 711.133 674.582 711.814 674.582Z" fill="white"/>
<path d="M747.146 733.004C747.827 733.004 748.379 732.451 748.379 731.77C748.379 731.089 747.827 730.537 747.146 730.537C746.464 730.537 745.912 731.089 745.912 731.77C745.912 732.451 746.464 733.004 747.146 733.004Z" fill="white"/>
<path d="M717.48 693.941C717.747 693.941 717.963 693.724 717.963 693.458C717.963 693.191 717.747 692.975 717.48 692.975C717.213 692.975 716.997 693.191 716.997 693.458C716.997 693.724 717.213 693.941 717.48 693.941Z" fill="#F0F0F0"/>
<path d="M725.633 703.451C725.9 703.451 726.116 703.235 726.116 702.968C726.116 702.702 725.9 702.485 725.633 702.485C725.367 702.485 725.15 702.702 725.15 702.968C725.15 703.235 725.367 703.451 725.633 703.451Z" fill="#F0F0F0"/>
<path d="M701.173 687.147C701.44 687.147 701.656 686.931 701.656 686.665C701.656 686.398 701.44 686.182 701.173 686.182C700.906 686.182 700.69 686.398 700.69 686.665C700.69 686.931 700.906 687.147 701.173 687.147Z" fill="#F0F0F0"/>
<path d="M752.633 710.849C752.133 711.493 751.493 712.016 750.763 712.379C750.032 712.742 749.229 712.936 748.414 712.946C747.598 712.956 746.79 712.783 746.051 712.438C745.312 712.093 744.659 711.586 744.143 710.954C743.627 710.323 743.259 709.583 743.068 708.79C742.877 707.997 742.867 707.171 743.039 706.374C743.211 705.577 743.561 704.828 744.062 704.185C744.563 703.541 745.203 703.019 745.934 702.656L752.633 710.849Z" fill="#FF6584"/>
<path d="M880.73 434.202C879.1 446.212 870.932 457.054 860.428 464.133C857.925 465.824 855.284 467.301 852.533 468.548C849.508 469.914 846.388 471.058 843.197 471.972C835.458 474.115 827.505 475.395 819.484 475.79H819.47C812.771 476.225 806.031 476.279 799.359 476.32L766.5 476.524C762.573 476.551 758.659 476.578 754.732 476.605C743.004 476.673 730.896 476.673 720.066 472.176C719.904 472.116 719.745 472.048 719.59 471.972C708.95 467.38 699.886 457.285 700.144 445.737C700.248 441.668 701.399 437.696 703.487 434.202C704.869 431.855 706.53 429.683 708.433 427.735C714.331 421.621 722.512 416.825 730.176 412.966C738.805 408.632 748.209 403.415 754.473 396.391C755.234 395.535 755.941 394.665 756.593 393.769C758.482 391.232 759.904 388.38 760.792 385.345C761.183 383.973 761.446 382.567 761.581 381.147C762.45 372.18 758.088 363.933 752.53 356.555C751.987 355.822 751.416 355.088 750.832 354.354C749.581 352.792 748.29 351.257 747.013 349.789C746.469 349.164 745.926 348.526 745.369 347.887C743.847 346.121 742.311 344.314 740.844 342.466C740.164 341.597 739.498 340.727 738.846 339.844C736.175 336.366 733.989 332.54 732.35 328.472C731.186 325.497 730.538 322.345 730.434 319.152C730.135 307.617 743.031 296.001 752.788 301.449C756.485 301.096 760.195 300.729 763.891 300.348C764.76 300.267 765.617 300.172 766.486 300.09C766.704 300.063 766.921 300.049 767.139 300.022C773.009 299.438 778.852 298.854 784.709 298.256H784.723C786.041 298.147 787.332 298.011 788.623 297.876H788.637C798.027 296.938 807.408 296.001 816.78 295.063C817.65 294.982 818.519 294.887 819.389 294.805C821.319 294.601 823.235 294.411 825.164 294.221C830.573 293.691 836.932 293.487 840.452 297.645C844.284 302.182 842.3 309.356 838.509 313.935C834.717 318.5 829.458 321.733 825.898 326.461C823.021 330.357 821.349 335.009 821.088 339.844C821.033 340.7 821.006 341.583 821.033 342.466C821.053 344.284 821.221 346.097 821.536 347.887C821.918 350.089 822.491 352.252 823.248 354.354C824.579 358.109 826.422 361.661 828.725 364.911C836.715 376.106 848.551 383.823 859.056 392.695C859.477 393.049 859.885 393.402 860.292 393.769C861.284 394.611 862.249 395.494 863.214 396.391C872.047 404.638 879.603 414.678 880.853 426.526C880.893 426.92 880.934 427.327 880.948 427.735C881.1 429.892 881.027 432.06 880.73 434.202Z" fill="#6F2183"/>
<path d="M792.704 230.111C794.973 227.339 797.229 224.54 799.498 221.755C796.76 214.953 792.923 208.647 788.14 203.089C787.549 202.424 786.779 201.945 785.922 201.708C785.065 201.471 784.158 201.486 783.31 201.752C782.462 202.019 781.708 202.524 781.141 203.209C780.573 203.893 780.216 204.727 780.111 205.609C778.128 220.23 767.361 234.231 765.485 249.472C764.951 253.825 765.176 258.238 766.151 262.515V262.521C754.731 237.668 750.267 210.183 753.234 182.995C756.493 154.295 767.793 127.1 785.833 104.539C793.181 100.529 799.123 94.3618 802.855 86.8692C803.361 85.8363 803.825 84.7734 804.232 83.6889C804.449 83.0978 804.521 82.4633 804.442 81.8386C804.362 81.214 804.134 80.6176 803.776 80.0997C803.417 79.5819 802.94 79.1576 802.383 78.8628C801.827 78.568 801.208 78.4113 800.578 78.4058C797.946 78.4272 795.315 78.2725 792.704 77.9429C794.098 76.2396 797.505 72.0529 800.069 68.8986C800.569 68.2978 800.935 67.5968 801.142 66.8428C801.349 66.0887 801.393 65.2991 801.269 64.527C801.146 63.7548 800.858 63.0181 800.426 62.3662C799.994 61.7143 799.428 61.1624 798.765 60.7476L798.71 60.7153C792.446 57.0469 783.803 59.5876 779.278 65.2531C774.739 70.9187 773.883 78.8668 775.459 85.9453C777.009 91.9685 779.573 97.684 783.042 102.847L783.047 102.855C782.702 103.286 782.343 103.706 782.004 104.142C772.645 116.171 765.1 129.507 759.609 143.723C759.391 144.286 759.198 144.857 758.986 145.421L758.989 145.386L759.859 134.055C762.763 128.88 764.464 123.117 764.836 117.194C765.208 111.272 764.24 105.342 762.006 99.8442C758.321 90.9564 751.408 83.4736 745.328 75.7894C738.04 66.5772 723.116 70.6439 721.832 82.3191C721.819 82.4318 721.807 82.5446 721.795 82.6574C726.893 85.525 731.358 89.393 734.923 94.0292C730.52 94.7086 726.103 95.4015 721.7 96.0808C722.022 99.3301 722.589 102.55 723.399 105.714C725.82 114.832 730.16 123.329 736.129 130.636C742.097 137.944 749.557 143.894 758.009 148.089C753.439 161.005 750.581 174.465 749.509 188.123C748.891 196.177 748.927 204.267 749.615 212.315C749.597 212.22 749.591 212.123 749.572 212.027C747.832 203.076 743.056 195 736.051 189.161C725.112 180.178 709.427 177.16 698.023 169.513C696.999 168.839 695.804 168.469 694.578 168.448C693.352 168.426 692.145 168.754 691.098 169.393C690.051 170.031 689.208 170.954 688.666 172.054C688.124 173.154 687.906 174.385 688.037 175.604C688.135 176.448 688.249 177.29 688.38 178.129C695.494 181.023 701.709 185.76 706.385 191.851C701.983 192.531 697.566 193.224 693.163 193.903C693.068 193.917 692.987 193.93 692.891 193.944C695.751 200.769 699.764 207.052 704.755 212.516C710.92 219.131 718.372 224.417 726.654 228.05C734.935 231.683 743.871 233.586 752.915 233.643C752.921 233.643 752.927 233.643 752.933 233.643C756.201 247.854 761.427 261.542 768.46 274.316C772.121 280.965 776.265 287.336 780.857 293.379L781.588 295.448C781.751 295.299 781.928 295.149 782.091 295L782.112 294.98C786.175 300.2 790.571 305.151 795.275 309.801C796.76 311.266 799.05 308.977 797.564 307.513C792.889 302.891 788.523 297.967 784.495 292.772C792.743 284.642 798.721 274.497 801.836 263.343C798.326 263.564 794.803 263.354 791.345 262.718C794.158 259.267 796.971 255.789 799.784 252.338C799.847 252.274 799.906 252.206 799.96 252.134C801.387 250.368 802.828 248.616 804.255 246.849C804.268 246.17 804.268 245.504 804.255 244.825C804.164 240.088 803.545 235.376 802.407 230.777C799.157 230.922 795.902 230.699 792.704 230.111ZM750.265 220.342C750.278 219.812 750.278 219.283 750.265 218.739C750.263 218.589 750.243 218.438 750.239 218.288C750.355 219.227 750.468 220.166 750.602 221.102L750.591 221.076L750.265 220.342Z" fill="url(#paint1_linear_2805_5)"/>
<path d="M993.622 385.743L977.884 454.973L967.828 465.986H960.573L990.474 340.113L991.953 361.497V361.511L993.622 385.743Z" fill="#3F3D56"/>
<path d="M1069.36 456.493L977.035 455.909L968.84 455.855L962.997 455.814L956.189 455.773H956.134C955.147 455.775 954.2 456.166 953.498 456.86L942.002 468.354C941.747 468.605 941.54 468.9 941.39 469.224C941.319 469.315 941.259 469.416 941.214 469.523C940.965 470.101 940.862 470.731 940.914 471.358C940.966 471.985 941.172 472.59 941.513 473.119C941.854 473.647 942.32 474.084 942.87 474.391C943.419 474.697 944.036 474.864 944.665 474.876H1064.26C1064.98 474.873 1065.68 474.668 1066.29 474.283C1066.9 473.898 1067.38 473.35 1067.69 472.702L1068.63 470.664L1070.56 466.52L1072.74 461.846C1072.98 461.349 1073.1 460.806 1073.1 460.257C1073.09 459.265 1072.7 458.315 1072 457.611C1071.3 456.907 1070.35 456.506 1069.36 456.493V456.493Z" fill="#3F3D56"/>
<path opacity="0.17" d="M1068.63 470.661L1067.68 472.706C1067.37 473.353 1066.89 473.9 1066.29 474.284C1065.68 474.668 1064.98 474.874 1064.27 474.877H944.663C944.034 474.866 943.418 474.7 942.868 474.394C942.318 474.088 941.853 473.651 941.512 473.122C941.171 472.593 940.966 471.989 940.915 471.362C940.863 470.735 940.967 470.105 941.217 469.528C941.259 469.42 941.317 469.319 941.39 469.229L1068.63 470.661Z" fill="black"/>
<path opacity="0.17" d="M991.953 361.497V361.511L966.348 465.986H960.573L990.474 340.113L991.953 361.497Z" fill="black"/>
<path d="M1023.37 380.64L987.131 104.958C986.999 103.925 986.461 102.986 985.637 102.349L960.687 71.1277L958.445 69.4022C957.614 68.7735 956.57 68.4954 955.537 68.6278L951.786 69.1305C950.752 69.2638 949.813 69.8025 949.176 70.628C948.538 71.4536 948.255 72.4983 948.389 73.5325V73.5325L985.949 359.174V359.187L988.246 376.659L990.977 397.406V397.433L995.217 429.714C995.284 430.268 995.471 430.799 995.765 431.273C996.058 431.747 996.451 432.152 996.916 432.459C997.373 432.773 997.891 432.987 998.437 433.085C998.983 433.184 999.544 433.165 1000.08 433.029L1002.46 432.432C1003.37 432.197 1004.17 431.649 1004.72 430.883L1005.78 429.375L1006.26 428.668L1022.68 383.425C1023.26 382.619 1023.5 381.623 1023.37 380.64Z" fill="#3F3D56"/>
<path opacity="0.17" d="M960.681 71.1289L1006.27 428.674L1005.77 429.374L1004.72 430.878C1004.17 431.645 1003.37 432.194 1002.46 432.428L1000.08 433.026C999.541 433.16 998.98 433.178 998.433 433.08C997.886 432.982 997.366 432.77 996.907 432.457C996.448 432.145 996.06 431.739 995.769 431.266C995.478 430.793 995.289 430.265 995.216 429.714L948.395 73.5367C948.259 72.5025 948.54 71.4567 949.175 70.6293C949.81 69.8018 950.748 69.2605 951.783 69.1242L955.543 68.6301C956.053 68.5612 956.572 68.5945 957.069 68.728C957.566 68.8616 958.032 69.0928 958.439 69.4081L960.681 71.1289Z" fill="black"/>
<path d="M962.024 81.3538L986.217 115.878L1014.97 334.621L999.382 365.543L962.024 81.3538Z" fill="#6C63FF"/>
<path d="M1046.88 385.309L1037.98 395.098C1037.57 395.445 1037.06 395.666 1036.53 395.736C1035.99 395.805 1035.45 395.719 1034.96 395.489C1033.49 394.967 1032.17 394.066 1031.15 392.878C1024.79 385.659 1017.65 379.166 1009.86 373.52C1008.58 372.617 1007.55 371.395 1006.89 369.975C1006.63 369.518 1006.49 368.996 1006.5 368.466C1006.51 367.937 1006.67 367.421 1006.96 366.977C1007.05 361.621 1010.07 358.302 1015.93 357.112C1016.96 356.042 1019.28 356.449 1021.36 358.072C1029.93 364.752 1037.98 372.068 1045.44 379.957C1047.27 381.896 1047.89 384.196 1046.88 385.309Z" fill="#6C63FF"/>
<path d="M1024 364.237L1016.51 372.476C1016.25 372.761 1015.63 372.615 1015.11 372.151C1014.6 371.686 1014.4 371.079 1014.66 370.795L1022.15 362.555C1022.41 362.271 1023.03 362.417 1023.54 362.881C1024.05 363.346 1024.26 363.952 1024 364.237Z" fill="white"/>
<path d="M1031.4 370.963L1023.91 379.202C1023.65 379.487 1023.02 379.341 1022.51 378.876C1022 378.412 1021.8 377.805 1022.06 377.521L1029.55 369.281C1029.81 368.997 1030.43 369.143 1030.94 369.607C1031.45 370.071 1031.66 370.678 1031.4 370.963Z" fill="white"/>
<path d="M897.437 399.113C882.466 378.252 854.21 367.472 834.326 375.035C814.441 382.598 810.457 405.64 825.428 426.5C840.399 447.361 884.467 480.174 904.352 472.611C924.237 465.049 912.408 419.973 897.437 399.113ZM897.529 463.275C895.082 466.863 889.076 467.029 884.116 463.647C879.156 460.264 877.119 454.613 879.567 451.026C882.015 447.438 888.02 447.271 892.98 450.654C897.94 454.036 899.977 459.687 897.529 463.275Z" fill="#3F3D56"/>
<path d="M880.537 419.518C878.673 421.025 876.808 422.531 874.944 424.038C872.656 426.148 869.947 427.749 866.995 428.736C862.942 429.672 858.705 429.42 854.792 428.01C849.088 426.167 844.088 422.615 840.471 417.835L844.501 418.734C842.363 416.259 840.625 413.466 839.349 410.455C838.404 407.661 838.931 404.825 841.482 404.059C844.402 403.183 849.104 405.153 851.555 403.737C855.795 401.289 848.825 392.171 852.689 389.359C854.94 387.72 859.444 389.341 863.199 390.949C867.869 392.728 872.296 395.091 876.372 397.982C883.042 403.131 886.734 411.248 884.011 415.947C883.079 417.338 881.902 418.548 880.537 419.518V419.518Z" fill="#6C63FF"/>
<path d="M879.163 435.161C875.903 435.607 872.131 433.101 868.984 430.789L868.184 429.741C867.528 427.735 867.253 425.624 867.371 423.516C867.445 422.54 867.849 421.618 868.516 420.901C869.184 420.184 870.075 419.715 871.044 419.571C872.956 419.319 875.508 420.144 876.772 419.038C879.214 416.899 873.55 411.003 876.14 409.001C877.593 407.878 880.682 409.318 882.013 411.249C883.101 413.049 883.603 415.142 883.45 417.24C883.493 420.32 883.536 423.4 883.58 426.481C883.717 428.299 883.533 430.128 883.036 431.883C882.762 432.737 882.254 433.497 881.57 434.077C880.885 434.656 880.051 435.032 879.163 435.161V435.161Z" fill="#2F2E41"/>
<path d="M879.981 445.424C875.461 444.09 868.569 439.434 862.699 435.322L860.952 433.801C859.122 431.726 857.571 429.421 856.338 426.944C855.661 425.089 856.533 424.006 859.533 424.902C862.19 425.694 866.373 427.948 867.61 427.504C870.002 426.645 858.48 417.456 861.162 416.82C862.668 416.463 867.974 419.645 870.983 422.367C873.199 424.331 875.029 426.692 876.38 429.327C878.139 432.523 879.898 435.719 881.656 438.915C882.718 440.511 883.458 442.299 883.835 444.179C883.871 445.539 882.723 446.234 879.981 445.424Z" fill="#FF6584"/>
<path d="M815.113 457.667L899.013 468.821C899.47 468.882 899.887 469.116 900.177 469.475C900.467 469.834 900.608 470.29 900.572 470.75C900.535 471.21 900.323 471.639 899.98 471.947C899.637 472.256 899.189 472.421 898.728 472.408L816.897 470.247L815.113 457.667Z" fill="#3F3D56"/>
<defs>
<linearGradient id="paint0_linear_2805_5" x1="31" y1="535.5" x2="1850" y2="893.5" gradientUnits="userSpaceOnUse">
<stop offset="0.24612" stop-color="#001220"/>
<stop offset="0.953125" stop-color="#6731D8"/>
</linearGradient>
<linearGradient id="paint1_linear_2805_5" x1="746.237" y1="59" x2="852.09" y2="258.5" gradientUnits="userSpaceOnUse">
<stop stop-color="#3D3978"/>
<stop offset="1" stop-color="#EAFCFF"/>
</linearGradient>
</defs>
</svg>
