<svg width="1049" height="211" viewBox="0 0 1049 211" fill="none" xmlns="http://www.w3.org/2000/svg">
<mask id="mask0_2807_18" style="mask-type:alpha" maskUnits="userSpaceOnUse" x="0" y="0" width="1049" height="211">
<rect y="0.744385" width="1048.69" height="209.383" fill="#D9D9D9"/>
</mask>
<g mask="url(#mask0_2807_18)">
<rect x="0.5" y="1.24438" width="1045.92" height="208.383" fill="white" stroke="black"/>
<path d="M630.707 45.5489C630.707 120.67 558.291 194.053 452.481 194.053C346.672 194.053 274.256 120.67 274.256 45.5489C274.256 -29.5717 346.672 -102.955 452.481 -102.955C558.291 -102.955 630.707 -29.5717 630.707 45.5489Z" stroke="#3DC6AD" stroke-width="112"/>
<path d="M807.263 53.9776C807.263 159.224 706.854 257.045 566.489 257.045C426.124 257.045 325.714 159.224 325.714 53.9776C325.714 -51.2689 426.124 -149.09 566.489 -149.09C706.854 -149.09 807.263 -51.2689 807.263 53.9776Z" stroke="#3DC6AD" stroke-width="112"/>
<path d="M988.192 45.5C988.192 199.594 843.294 333.5 652.692 333.5C462.091 333.5 317.192 199.594 317.192 45.5C317.192 -108.594 462.091 -242.5 652.692 -242.5C843.294 -242.5 988.192 -108.594 988.192 45.5Z" stroke="#3DC6AD" stroke-width="81"/>
</g>
<circle cx="18.1888" cy="4.73687" r="3.99248" fill="#12FFD4"/>
<circle cx="440.504" cy="4.73687" r="3.99248" fill="#12FFD4"/>
<circle cx="440.504" cy="198.15" r="3.99248" fill="#12FFD4"/>
<circle cx="21.7376" cy="198.15" r="3.99248" fill="#12FFD4"/>
</svg>
